<?xml version="1.0" encoding="UTF-8" standalone="no"?>
<!DOCTYPE svg PUBLIC "-//W3C//DTD SVG 1.1//EN" "http://www.w3.org/Graphics/SVG/1.1/DTD/svg11.dtd">
<svg width="100%" height="100%" viewBox="0 0 512 512" version="1.1" xmlns="http://www.w3.org/2000/svg" xmlns:xlink="http://www.w3.org/1999/xlink" xml:space="preserve" xmlns:serif="http://www.serif.com/" style="fill-rule:evenodd;clip-rule:evenodd;stroke-miterlimit:1.5;">
    <g transform="matrix(1,0,0,1,-1952,-3918)">
        <g id="Trash" transform="matrix(1,0,0,1,1952,3918)">
            <rect x="0" y="0" width="512" height="512" style="fill:none;"/>
            <g transform="matrix(0.971442,0,0,0.76795,-1887.74,-2903.35)">
                <rect x="2092.38" y="3976.24" width="228.755" height="396.305" style="fill:none;stroke:white;stroke-width:23.79px;"/>
            </g>
            <g transform="matrix(0.447838,0,0,0.112284,-731.655,-386.603)">
                <rect x="2092.38" y="3976.24" width="228.755" height="396.305" style="fill:none;stroke:white;stroke-width:63.81px;"/>
            </g>
            <g transform="matrix(1.43524,0,0,0.115663,-2911.23,-355.542)">
                <rect x="2092.38" y="3976.24" width="228.755" height="396.305" style="fill:none;stroke:white;stroke-width:20.46px;"/>
            </g>
            <g transform="matrix(0.838575,0,0,1,-1652.35,-3876.21)">
                <path d="M2215.36,4087.02L2215.36,4270.15" style="fill:none;stroke:white;stroke-width:22.58px;"/>
            </g>
            <g transform="matrix(0.838575,0,0,1,-1601.13,-3876.21)">
                <path d="M2215.36,4087.02L2215.36,4270.15" style="fill:none;stroke:white;stroke-width:22.58px;"/>
            </g>
            <g transform="matrix(0.838575,0,0,1,-1549.9,-3876.21)">
                <path d="M2215.36,4087.02L2215.36,4270.15" style="fill:none;stroke:white;stroke-width:22.58px;"/>
            </g>
        </g>
    </g>
</svg>
