<?xml version="1.0" encoding="UTF-8" standalone="no"?>
<!DOCTYPE svg PUBLIC "-//W3C//DTD SVG 1.1//EN" "http://www.w3.org/Graphics/SVG/1.1/DTD/svg11.dtd">
<svg width="100%" height="100%" viewBox="0 0 512 512" version="1.1" xmlns="http://www.w3.org/2000/svg" xmlns:xlink="http://www.w3.org/1999/xlink" xml:space="preserve" xmlns:serif="http://www.serif.com/" style="fill-rule:evenodd;clip-rule:evenodd;stroke-linejoin:round;stroke-miterlimit:2;">
    <g transform="matrix(1,0,0,1,-2608,-3918)">
        <g id="Copy" transform="matrix(1,0,0,1,2608,3918)">
            <rect x="0" y="0" width="512" height="512" style="fill:none;"/>
            <g transform="matrix(1,0,0,1,-2608,-3918)">
                <path d="M2978.72,4378.61L2978.72,4000.28L2698.52,4000.28L2698.52,4378.61L2978.72,4378.61ZM2957.89,4021.11L2719.35,4021.11L2719.35,4357.77L2957.89,4357.77L2957.89,4021.11Z" style="fill:white;"/>
            </g>
            <g transform="matrix(327.067,0,0,327.067,131.844,387.187)">
                <path d="M0.01,-0.688L-0,-0.472L0.094,-0.472L0.116,-0.6C0.116,-0.6 0.234,-0.6 0.234,-0.6C0.235,-0.563 0.236,-0.526 0.236,-0.489L0.236,-0.18C0.236,-0.143 0.235,-0.106 0.234,-0.069C0.234,-0.069 0.132,-0.058 0.132,-0.058L0.132,0.019L0.472,0.019L0.472,-0.058L0.37,-0.069C0.369,-0.107 0.369,-0.144 0.369,-0.182C0.368,-0.225 0.368,-0.267 0.368,-0.31C0.368,-0.31 0.368,-0.359 0.368,-0.359C0.368,-0.403 0.368,-0.447 0.369,-0.49C0.369,-0.527 0.369,-0.563 0.37,-0.6C0.37,-0.6 0.488,-0.6 0.488,-0.6C0.488,-0.6 0.51,-0.472 0.51,-0.472L0.604,-0.472L0.594,-0.688L0.01,-0.688Z" style="fill:white;fill-rule:nonzero;"/>
            </g>
            <g transform="matrix(1,0,0,1,-2608,-3918)">
                <path d="M2751.74,4012.7L2966.54,4012.7L2966.54,4325.39L3031.93,4325.39L3031.93,3947.06L2751.74,3947.06L2751.74,4012.7ZM2772.57,4000.28L2978.72,4000.28L2978.72,4304.56L3011.1,4304.56L3011.1,3967.89L2772.57,3967.89L2772.57,4000.28Z" style="fill:white;"/>
            </g>
        </g>
    </g>
</svg>
