<?xml version="1.0" encoding="UTF-8" standalone="no"?>
<!DOCTYPE svg PUBLIC "-//W3C//DTD SVG 1.1//EN" "http://www.w3.org/Graphics/SVG/1.1/DTD/svg11.dtd">
<svg width="100%" height="100%" viewBox="0 0 512 512" version="1.1" xmlns="http://www.w3.org/2000/svg" xmlns:xlink="http://www.w3.org/1999/xlink" xml:space="preserve" xmlns:serif="http://www.serif.com/" style="fill-rule:evenodd;clip-rule:evenodd;stroke-linejoin:round;stroke-miterlimit:2;">
    <g transform="matrix(1,0,0,1,0,-2026)">
        <g id="Bold" transform="matrix(1,0,0,1,0,2026)">
            <rect x="0" y="0" width="512" height="512" style="fill:none;"/>
            <g transform="matrix(431.799,0,0,431.799,103.223,409.064)">
                <path d="M0.292,-0.168L0.399,-0.168C0.434,-0.168 0.46,-0.173 0.475,-0.184C0.49,-0.194 0.497,-0.211 0.497,-0.235C0.497,-0.259 0.489,-0.276 0.474,-0.286C0.459,-0.296 0.433,-0.301 0.397,-0.301L0.292,-0.301L0.292,-0.168ZM0.292,-0.432L0.387,-0.432C0.419,-0.432 0.442,-0.437 0.455,-0.446C0.468,-0.456 0.474,-0.472 0.474,-0.494C0.474,-0.518 0.467,-0.534 0.453,-0.543C0.439,-0.552 0.407,-0.556 0.356,-0.556L0.292,-0.556L0.292,-0.432ZM0.068,-0L0.068,-0.719L0.363,-0.719C0.426,-0.719 0.472,-0.718 0.501,-0.714C0.53,-0.711 0.555,-0.706 0.576,-0.698C0.613,-0.685 0.641,-0.663 0.66,-0.634C0.679,-0.605 0.689,-0.57 0.689,-0.529C0.689,-0.496 0.682,-0.468 0.667,-0.444C0.653,-0.419 0.631,-0.399 0.602,-0.384C0.64,-0.37 0.668,-0.35 0.687,-0.322C0.705,-0.295 0.714,-0.259 0.714,-0.216C0.714,-0.173 0.705,-0.136 0.687,-0.105C0.67,-0.073 0.644,-0.049 0.61,-0.032C0.587,-0.021 0.561,-0.012 0.532,-0.007C0.502,-0.002 0.454,-0 0.386,-0L0.068,-0Z" style="fill:white;fill-rule:nonzero;"/>
            </g>
        </g>
    </g>
</svg>
