<?xml version="1.0" encoding="UTF-8" standalone="no"?>
<!DOCTYPE svg PUBLIC "-//W3C//DTD SVG 1.1//EN" "http://www.w3.org/Graphics/SVG/1.1/DTD/svg11.dtd">
<svg width="100%" height="100%" viewBox="0 0 512 512" version="1.1" xmlns="http://www.w3.org/2000/svg" xmlns:xlink="http://www.w3.org/1999/xlink" xml:space="preserve" xmlns:serif="http://www.serif.com/" style="fill-rule:evenodd;clip-rule:evenodd;stroke-linejoin:round;stroke-miterlimit:2;">
    <g transform="matrix(1,0,0,1,-3952,-2026)">
        <g id="Right" transform="matrix(1,0,0,1,3952,2026)">
            <rect x="0" y="0" width="512" height="512" style="fill:none;"/>
            <g transform="matrix(0.787774,0,0,0.787774,54.3298,63.4679)">
                <g transform="matrix(1.06504,0,0,1,-1415.58,-3473.82)">
                    <rect x="1385" y="3874" width="369" height="38.52" style="fill:white;"/>
                </g>
                <g transform="matrix(1.06504,0,0,1,-1415.58,-3648.86)">
                    <rect x="1385" y="3874" width="369" height="38.52" style="fill:white;"/>
                </g>
                <g transform="matrix(0.707317,0,0,1,-788.134,-3561.34)">
                    <rect x="1385" y="3874" width="369" height="38.52" style="fill:white;"/>
                </g>
                <g transform="matrix(0.707317,0,0,1,-788.134,-3736.38)">
                    <rect x="1385" y="3874" width="369" height="38.52" style="fill:white;"/>
                </g>
                <g transform="matrix(1.06504,0,0,1,-1415.58,-3823.9)">
                    <rect x="1385" y="3874" width="369" height="38.52" style="fill:white;"/>
                </g>
            </g>
        </g>
    </g>
</svg>
