<?xml version="1.0" encoding="UTF-8" standalone="no"?>
<!DOCTYPE svg PUBLIC "-//W3C//DTD SVG 1.1//EN" "http://www.w3.org/Graphics/SVG/1.1/DTD/svg11.dtd">
<svg width="100%" height="100%" viewBox="0 0 512 512" version="1.1" xmlns="http://www.w3.org/2000/svg" xmlns:xlink="http://www.w3.org/1999/xlink" xml:space="preserve" xmlns:serif="http://www.serif.com/" style="fill-rule:evenodd;clip-rule:evenodd;stroke-linejoin:round;stroke-miterlimit:2;">
    <g transform="matrix(1,0,0,1,-2608,-2026)">
        <g id="Code" transform="matrix(1,0,0,1,2608,2026)">
            <rect x="0" y="0" width="512" height="512" style="fill:none;"/>
            <g transform="matrix(0.601724,0,0,0.891427,2.54247,-3230.77)">
                <g transform="matrix(534.686,0,0,534.686,100.291,4105)">
                    <path d="M0.528,-0.099L0.043,-0.313L0.043,-0.383L0.528,-0.625L0.528,-0.508L0.194,-0.353L0.528,-0.216L0.528,-0.099Z" style="fill:white;fill-rule:nonzero;"/>
                </g>
                <g transform="matrix(534.686,0,0,534.686,436.842,4105)">
                    <path d="M0.043,-0.216L0.377,-0.353L0.043,-0.508L0.043,-0.625L0.528,-0.383L0.528,-0.313L0.043,-0.099L0.043,-0.216Z" style="fill:white;fill-rule:nonzero;"/>
                </g>
            </g>
        </g>
    </g>
</svg>
