<?xml version="1.0" encoding="UTF-8" standalone="no"?>
<!DOCTYPE svg PUBLIC "-//W3C//DTD SVG 1.1//EN" "http://www.w3.org/Graphics/SVG/1.1/DTD/svg11.dtd">
<svg width="100%" height="100%" viewBox="0 0 512 512" version="1.1" xmlns="http://www.w3.org/2000/svg" xmlns:xlink="http://www.w3.org/1999/xlink" xml:space="preserve" xmlns:serif="http://www.serif.com/" style="fill-rule:evenodd;clip-rule:evenodd;stroke-linejoin:round;stroke-miterlimit:2;">
    <g transform="matrix(1,0,0,1,0,-2539)">
        <g id="Logo" transform="matrix(1,0,0,1,0,2539)">
            <rect x="0" y="0" width="512" height="512" style="fill:none;"/>
            <g id="Layer1">
                <path d="M104.667,284.902C121.224,285.05 146.754,283.718 172.325,276.29C218.292,262.938 264.169,230.959 264.666,157.112C265.131,88.14 219.133,58.662 172.323,47.013C129.229,36.289 86.027,41.451 86.027,41.451L71.333,43.202L71.333,477.137L88.464,476.66C152.193,474.886 205.446,435.998 243.049,375.964C243.049,375.964 276.374,465.797 276.374,465.797L306.907,467.454L351.732,377.805C351.732,377.805 384.374,465.797 384.374,465.797L415.543,466.017L467.414,328.546L432.457,328.546L400.332,412.975C400.332,412.975 369.626,328.546 369.626,328.546L339.093,328.546L294.268,418.195C294.268,418.195 261.626,328.546 261.626,328.546L230.974,328.546C202.284,388.338 159.318,432.725 104.667,441.708L104.667,284.902ZM104.667,251.604C118.692,251.782 140.841,250.724 163.027,244.28C196.845,234.457 230.968,211.217 231.334,156.888C231.665,107.687 197.665,87.669 164.274,79.36C141.604,73.719 118.901,73.175 104.667,73.606L104.667,251.604Z" style="fill:white;"/>
            </g>
        </g>
    </g>
</svg>
