<?xml version="1.0" encoding="UTF-8" standalone="no"?>
<!DOCTYPE svg PUBLIC "-//W3C//DTD SVG 1.1//EN" "http://www.w3.org/Graphics/SVG/1.1/DTD/svg11.dtd">
<svg width="100%" height="100%" viewBox="0 0 512 512" version="1.1" xmlns="http://www.w3.org/2000/svg" xmlns:xlink="http://www.w3.org/1999/xlink" xml:space="preserve" xmlns:serif="http://www.serif.com/" style="fill-rule:evenodd;clip-rule:evenodd;stroke-linejoin:round;stroke-miterlimit:2;">
    <g transform="matrix(1,0,0,1,-1288,-2026)">
        <g id="Strikethrough" transform="matrix(1,0,0,1,1288,2026)">
            <rect x="0" y="0" width="512" height="512" style="fill:none;"/>
            <g transform="matrix(0.754542,0,0,0.754542,62.8372,62.8372)">
                <g transform="matrix(1.1626,0,0,1,-1568.7,-3639.74)">
                    <rect x="1385" y="3874" width="369" height="38.52" style="fill:white;"/>
                </g>
                <g transform="matrix(1,0,0,1,-1288,-3659)">
                    <path d="M1694.26,3945.78C1695.18,3947.46 1696.04,3949.16 1696.86,3950.9C1703.3,3964.56 1706.52,3979.75 1706.52,3996.46C1706.52,4034.75 1691.86,4064.55 1662.53,4085.88C1633.2,4107.2 1592.08,4117.86 1539.17,4117.86C1489.22,4117.86 1451.19,4106.41 1425.08,4083.53C1398.97,4060.64 1384.44,4025.96 1381.48,3979.49L1475.99,3979.49C1476.69,4001.42 1483.13,4017.91 1495.31,4028.96C1507.49,4040.01 1525.33,4045.54 1548.83,4045.54C1568.85,4045.54 1584.34,4042.23 1595.3,4035.62C1606.27,4029 1611.75,4019.69 1611.75,4007.68C1611.75,4001.59 1610.44,3996.15 1607.83,3991.37C1605.22,3986.58 1601.57,3982.97 1596.87,3980.53C1589.73,3976.7 1572.24,3970.7 1544.39,3962.52C1524.97,3956.81 1507.66,3951.23 1492.47,3945.78L1694.26,3945.78ZM1400.38,3879.26C1393,3865.13 1389.31,3849.45 1389.31,3832.24C1389.31,3795.51 1403.11,3766.32 1430.69,3744.65C1458.28,3722.98 1495.66,3712.14 1542.83,3712.14C1589.12,3712.14 1625.85,3723.54 1653,3746.34C1680.15,3769.14 1693.73,3799.95 1693.73,3838.77L1601.05,3838.77C1598.96,3820.84 1592.65,3807.61 1582.12,3799.08C1571.59,3790.55 1556.4,3786.29 1536.56,3786.29C1520.72,3786.29 1507.84,3789.55 1497.92,3796.08C1488,3802.61 1483.04,3810.92 1483.04,3821.01C1483.04,3838.07 1506.62,3854.17 1553.79,3869.31C1562.32,3872.1 1568.85,3874.18 1573.37,3875.58L1577.29,3876.88C1579.75,3877.68 1582.16,3878.47 1584.53,3879.26L1400.38,3879.26Z" style="fill:white;fill-rule:nonzero;"/>
                </g>
            </g>
        </g>
    </g>
</svg>
