<?xml version="1.0" encoding="UTF-8" standalone="no"?>
<!DOCTYPE svg PUBLIC "-//W3C//DTD SVG 1.1//EN" "http://www.w3.org/Graphics/SVG/1.1/DTD/svg11.dtd">
<svg width="100%" height="100%" viewBox="0 0 512 513" version="1.1" xmlns="http://www.w3.org/2000/svg" xmlns:xlink="http://www.w3.org/1999/xlink" xml:space="preserve" xmlns:serif="http://www.serif.com/" style="fill-rule:evenodd;clip-rule:evenodd;stroke-linejoin:round;stroke-miterlimit:2;">
    <g transform="matrix(1,0,0,1,0,-6283)">
        <g id="Tag" transform="matrix(1,0,0,1,0,6283.51)">
            <rect x="0" y="0" width="512" height="512" style="fill:none;"/>
            <g transform="matrix(0.998733,0,0,0.762444,46.1561,-4715.84)">
                <path d="M348.126,6338.1L-12.515,6338.1L-12.515,6711.75L348.126,6711.75L453.006,6524.92L348.126,6338.1ZM332.296,6379.08L414.167,6524.92C414.167,6524.92 332.296,6670.76 332.296,6670.76C332.296,6670.76 18.775,6670.76 18.775,6670.76C18.775,6598.89 18.775,6450.95 18.775,6379.08C18.775,6379.08 332.296,6379.08 332.296,6379.08L332.296,6379.08Z" style="fill:white;"/>
            </g>
            <g transform="matrix(1.11501,0,0,1.11501,277.302,-7056.3)">
                <g transform="matrix(160.032,0,0,160.032,-187.675,6594.24)">
                    <path d="M0.394,0.012C0.359,0.012 0.329,0.007 0.305,-0.003C0.281,-0.012 0.262,-0.026 0.247,-0.043C0.232,-0.061 0.222,-0.082 0.216,-0.107C0.209,-0.132 0.206,-0.159 0.206,-0.189L0.206,-0.419L0.069,-0.419L0.069,-0.481L0.209,-0.486L0.22,-0.642L0.288,-0.642L0.288,-0.486L0.527,-0.486L0.527,-0.419L0.288,-0.419L0.288,-0.188C0.288,-0.166 0.29,-0.147 0.294,-0.131C0.298,-0.114 0.305,-0.1 0.314,-0.089C0.323,-0.078 0.336,-0.069 0.352,-0.064C0.368,-0.058 0.388,-0.055 0.411,-0.055C0.434,-0.055 0.455,-0.057 0.474,-0.061C0.493,-0.065 0.511,-0.07 0.528,-0.077L0.546,-0.017C0.524,-0.009 0.501,-0.002 0.476,0.003C0.452,0.009 0.425,0.012 0.394,0.012Z" style="fill:white;fill-rule:nonzero;"/>
                </g>
                <g transform="matrix(160.032,0,0,160.032,-91.6551,6594.24)">
                    <path d="M0.246,0.012C0.223,0.012 0.202,0.009 0.182,0.002C0.162,-0.004 0.145,-0.013 0.13,-0.025C0.115,-0.036 0.103,-0.051 0.094,-0.068C0.085,-0.085 0.081,-0.104 0.081,-0.126C0.081,-0.153 0.087,-0.177 0.101,-0.198C0.114,-0.218 0.134,-0.235 0.163,-0.25C0.191,-0.265 0.227,-0.277 0.272,-0.286C0.317,-0.295 0.37,-0.303 0.433,-0.308C0.432,-0.325 0.43,-0.34 0.425,-0.355C0.42,-0.37 0.413,-0.383 0.403,-0.394C0.393,-0.405 0.38,-0.413 0.364,-0.42C0.347,-0.427 0.327,-0.43 0.304,-0.43C0.272,-0.43 0.241,-0.424 0.212,-0.411C0.183,-0.399 0.157,-0.386 0.134,-0.372L0.102,-0.428C0.114,-0.436 0.128,-0.444 0.145,-0.453C0.161,-0.461 0.178,-0.468 0.197,-0.475C0.215,-0.482 0.234,-0.487 0.255,-0.492C0.276,-0.496 0.297,-0.498 0.318,-0.498C0.385,-0.498 0.434,-0.48 0.467,-0.444C0.499,-0.407 0.515,-0.359 0.515,-0.298L0.515,-0L0.448,-0L0.441,-0.066L0.438,-0.066C0.411,-0.045 0.381,-0.026 0.347,-0.011C0.315,0.004 0.281,0.012 0.246,0.012ZM0.268,-0.054C0.296,-0.054 0.324,-0.06 0.35,-0.073C0.378,-0.085 0.405,-0.103 0.433,-0.126L0.433,-0.254C0.381,-0.25 0.338,-0.244 0.303,-0.237C0.268,-0.23 0.239,-0.221 0.219,-0.211C0.198,-0.2 0.183,-0.189 0.174,-0.175C0.165,-0.163 0.161,-0.148 0.161,-0.132C0.161,-0.118 0.164,-0.106 0.17,-0.097C0.176,-0.087 0.184,-0.079 0.194,-0.073C0.203,-0.066 0.215,-0.062 0.228,-0.059C0.241,-0.056 0.254,-0.054 0.268,-0.054Z" style="fill:white;fill-rule:nonzero;"/>
                </g>
                <g transform="matrix(160.032,0,0,160.032,4.36437,6594.24)">
                    <path d="M0.296,0.224C0.225,0.224 0.17,0.212 0.131,0.189C0.092,0.166 0.072,0.132 0.072,0.089C0.072,0.07 0.079,0.051 0.093,0.032C0.106,0.013 0.126,-0.004 0.152,-0.019L0.152,-0.023C0.139,-0.03 0.127,-0.04 0.117,-0.053C0.107,-0.066 0.102,-0.082 0.102,-0.103C0.102,-0.118 0.107,-0.134 0.117,-0.151C0.127,-0.167 0.141,-0.181 0.16,-0.194L0.16,-0.198C0.143,-0.211 0.129,-0.228 0.117,-0.249C0.106,-0.27 0.1,-0.295 0.1,-0.324C0.1,-0.351 0.105,-0.375 0.116,-0.396C0.126,-0.417 0.14,-0.436 0.157,-0.451C0.174,-0.466 0.195,-0.477 0.218,-0.486C0.241,-0.494 0.265,-0.498 0.291,-0.498C0.318,-0.498 0.342,-0.494 0.363,-0.486L0.564,-0.486L0.564,-0.419L0.438,-0.419C0.449,-0.408 0.459,-0.393 0.467,-0.376C0.475,-0.359 0.479,-0.34 0.479,-0.321C0.479,-0.295 0.474,-0.272 0.465,-0.251C0.455,-0.23 0.442,-0.213 0.425,-0.199C0.407,-0.184 0.388,-0.173 0.365,-0.166C0.342,-0.158 0.317,-0.154 0.291,-0.154C0.278,-0.154 0.265,-0.156 0.251,-0.159C0.236,-0.162 0.222,-0.166 0.209,-0.172C0.184,-0.156 0.171,-0.137 0.171,-0.116C0.171,-0.097 0.18,-0.083 0.198,-0.074C0.215,-0.065 0.24,-0.06 0.272,-0.06L0.381,-0.06C0.444,-0.06 0.49,-0.051 0.521,-0.034C0.551,-0.017 0.566,0.013 0.566,0.054C0.566,0.077 0.56,0.098 0.547,0.119C0.534,0.14 0.516,0.158 0.493,0.173C0.47,0.188 0.441,0.201 0.408,0.21C0.375,0.219 0.337,0.224 0.296,0.224ZM0.291,-0.209C0.322,-0.209 0.349,-0.219 0.371,-0.24C0.392,-0.261 0.403,-0.289 0.403,-0.324C0.403,-0.341 0.4,-0.356 0.394,-0.37C0.388,-0.384 0.38,-0.396 0.37,-0.406C0.36,-0.416 0.348,-0.424 0.335,-0.43C0.321,-0.435 0.306,-0.438 0.291,-0.438C0.276,-0.438 0.261,-0.435 0.248,-0.43C0.234,-0.424 0.222,-0.416 0.212,-0.406C0.202,-0.396 0.194,-0.384 0.188,-0.37C0.182,-0.356 0.179,-0.341 0.179,-0.324C0.179,-0.289 0.19,-0.261 0.212,-0.24C0.234,-0.219 0.26,-0.209 0.291,-0.209ZM0.302,0.164C0.33,0.164 0.355,0.161 0.378,0.156C0.401,0.151 0.42,0.143 0.436,0.134C0.452,0.125 0.464,0.115 0.472,0.103C0.481,0.092 0.485,0.08 0.485,0.067C0.485,0.044 0.476,0.028 0.458,0.02C0.439,0.012 0.411,0.008 0.374,0.008L0.279,0.008C0.265,0.008 0.252,0.007 0.239,0.006C0.227,0.005 0.216,0.003 0.205,-0C0.182,0.013 0.166,0.026 0.157,0.039C0.148,0.053 0.143,0.067 0.143,0.081C0.143,0.106 0.157,0.126 0.184,0.141C0.211,0.156 0.25,0.164 0.302,0.164Z" style="fill:white;fill-rule:nonzero;"/>
                </g>
            </g>
        </g>
    </g>
</svg>
