<?xml version="1.0" encoding="UTF-8" standalone="no"?>
<!DOCTYPE svg PUBLIC "-//W3C//DTD SVG 1.1//EN" "http://www.w3.org/Graphics/SVG/1.1/DTD/svg11.dtd">
<svg width="100%" height="100%" viewBox="0 0 512 512" version="1.1" xmlns="http://www.w3.org/2000/svg" xmlns:xlink="http://www.w3.org/1999/xlink" xml:space="preserve" xmlns:serif="http://www.serif.com/" style="fill-rule:evenodd;clip-rule:evenodd;stroke-miterlimit:1.5;">
    <g transform="matrix(1,0,0,1,-3287,-3918)">
        <g id="Lock" transform="matrix(1,0,0,1,3287,3918)">
            <rect x="0" y="0" width="512" height="512" style="fill:none;"/>
            <g transform="matrix(1,0,0,1,-3293.28,-3865.46)">
                <rect x="3421.01" y="4050.81" width="256.532" height="256.532" style="fill:none;stroke:white;stroke-width:20.83px;"/>
            </g>
            <g transform="matrix(0.580984,0,0,0.530391,-1806.07,-2099.23)">
                <rect x="3421.01" y="4050.81" width="256.532" height="256.532" style="fill:none;stroke:white;stroke-width:37.45px;"/>
            </g>
            <g transform="matrix(0,-1,1,0,-3962.53,3842.68)">
                <rect x="3522.02" y="4184.56" width="67.937" height="67.937" style="fill:white;"/>
            </g>
            <g transform="matrix(2.11987e-17,-0.872267,0.391289,-1.57676e-17,-1394.66,3452.06)">
                <rect x="3522.02" y="4184.56" width="67.937" height="67.937" style="fill:white;"/>
            </g>
        </g>
    </g>
</svg>
