<?xml version="1.0" encoding="UTF-8" standalone="no"?>
<!DOCTYPE svg PUBLIC "-//W3C//DTD SVG 1.1//EN" "http://www.w3.org/Graphics/SVG/1.1/DTD/svg11.dtd">
<svg width="100%" height="100%" viewBox="0 0 512 512" version="1.1" xmlns="http://www.w3.org/2000/svg" xmlns:xlink="http://www.w3.org/1999/xlink" xml:space="preserve" xmlns:serif="http://www.serif.com/" style="fill-rule:evenodd;clip-rule:evenodd;stroke-linejoin:round;stroke-miterlimit:2;">
    <g transform="matrix(1,0,0,1,0,-1790)">
        <g id="Settings" transform="matrix(1,0,0,1,0,1790)">
            <rect x="0" y="0" width="512" height="512" style="fill:none;"/>
            <g transform="matrix(1,0,0,1,0,-1782)">
                <path d="M290.726,1863.42C267.8,1858.86 244.2,1858.86 221.274,1863.42L222.636,1901.39C208.661,1904.81 195.293,1910.35 182.998,1917.81L157.108,1890C137.673,1902.99 120.985,1919.67 107.998,1939.11L135.814,1965C128.346,1977.29 122.808,1990.66 119.395,2004.64L81.42,2003.27C76.86,2026.2 76.86,2049.8 81.42,2072.73L119.395,2071.36C122.808,2085.34 128.346,2098.71 135.814,2111L107.998,2136.89C120.985,2156.33 137.673,2173.01 157.108,2186L182.998,2158.19C195.293,2165.65 208.661,2171.19 222.636,2174.61L221.274,2212.58C244.2,2217.14 267.8,2217.14 290.726,2212.58L289.364,2174.61C303.339,2171.19 316.707,2165.65 329.002,2158.19L354.892,2186C374.327,2173.01 391.015,2156.33 404.002,2136.89L376.186,2111C383.654,2098.71 389.192,2085.34 392.605,2071.36L430.58,2072.73C435.14,2049.8 435.14,2026.2 430.58,2003.27L392.605,2004.64C389.192,1990.66 383.654,1977.29 376.186,1965L404.002,1939.11C391.015,1919.67 374.327,1902.99 354.892,1890L329.002,1917.81C316.707,1910.35 303.339,1904.81 289.364,1901.39L290.726,1863.42ZM256,1954.34C302.173,1954.34 339.66,1991.83 339.66,2038C339.66,2084.17 302.173,2121.66 256,2121.66C209.827,2121.66 172.34,2084.17 172.34,2038C172.34,1991.83 209.827,1954.34 256,1954.34Z" style="fill:white;"/>
            </g>
        </g>
    </g>
</svg>
